# AST/ASF file generated using VICON BodyLanguage
# -----------------------------------------------
:version 1.10
:name VICON
:units
  mass 1.0
  length 0.45
  angle deg
:documentation
   .ast/.asf automatically generated from VICON data using
   VICON BodyBuilder and BodyLanguage model FoxedUp or BRILLIANT.MOD
:root
   order TX TY TZ RX RY RZ
   axis XYZ
   position 0 0 0  
   orientation 0 0 0 
:bonedata
  begin
     id 1 
     name lhipjoint
     direction 0.662698 -0.695252 0.27831 
     length 2.53073 
     axis 0 0 0  XYZ
  end
  begin
     id 2 
     name lfemur
     direction 0.34202 -0.939693 0  
     length 7.16147  
     axis 0 0 20  XYZ
    dof rx ry rz
    limits (-160.0 20.0)
           (-70.0 70.0)
           (-60.0 70.0)
  end
  begin
     id 3 
     name ltibia
     direction 0.34202 -0.939693 0   
     length 7.63967   
     axis 0 0 20   XYZ
    dof rx
    limits (-10.0 170.0)
  end
  begin
     id 4 
     name lfoot
     direction 0.0938457 -0.257721 0.961651   
     length 1.89793   
     axis -90 7.62852e-016 20   XYZ
    dof rx rz
    limits (-45.0 90.0)
           (-70.0 20.0)
  end
  begin
     id 5 
     name ltoes
     direction -0.00116841 -0.0030592 0.999995   
     length 0.955649   
     axis -90 7.62852e-016 20   XYZ
    dof rx
    limits (-90.0 20.0)
  end
  begin
     id 6 
     name rhipjoint
     direction -0.649445 -0.705948 0.282592   
     length 2.49238  
     axis 0 0 0  XYZ 
  end
  begin
     id 7 
     name rfemur
     direction -0.34202 -0.939693 0   
     length 6.90728   
     axis 0 0 -20   XYZ
    dof rx ry rz
    limits (-160.0 20.0)
           (-70.0 70.0)
           (-70.0 60.0)
  end
  begin
     id 8 
     name rtibia
     direction -0.34202 -0.939693 0   
     length 7.72868   
     axis 0 0 -20   XYZ
    dof rx
    limits (-10.0 170.0)
 end
 begin
     id 9 
     name rfoot
     direction -0.0920068 -0.252865 0.963117   
     length 1.97476  
     axis -90 -7.62852e-016 -20   XYZ
    dof rx rz
    limits (-45.0 90.0)
           (-20.0 70.0)
  end
  begin
     id 10 
     name rtoes
     direction 0.000391322 0.00230649 0.999997   
     length 0.992641   
     axis -90 -7.62852e-016 -20   XYZ
    dof rx
    limits (-90.0 20.0)
  end
  begin
     id 11 
     name lowerback
     direction -0.00875327 0.998321 -0.0572635   
     length 2.20024   
     axis 0 0 0   XYZ
    dof rx ry rz
    limits (-20.0 45.0)
           (-30.0 30.0)
           (-30.0 30.0)
  end
  begin
     id 12 
     name upperback
     direction 0.00753931 0.999972 -0.000360425   
     length 2.20538   
     axis 0 0 0   XYZ
    dof rx ry rz
    limits (-20.0 45.0)
           (-30.0 30.0)
           (-30.0 30.0)
  end
  begin
     id 13 
     name thorax
     direction 0.0117767 0.999601 0.0256663   
     length 2.21508   
     axis 0 0 0   XYZ
    dof rx ry rz
    limits (-20.0 45.0)
           (-30.0 30.0)
           (-30.0 30.0)
  end
  begin
     id 14 
     name lowerneck
     direction 0.060228 0.994909 0.0807986   
     length 1.7607   
     axis 0 0 0   XYZ
    dof rx ry rz
    limits (-20.0 45.0)
           (-30.0 30.0)
           (-30.0 30.0)
  end
  begin
     id 15 
     name upperneck
     direction -0.0563647 0.959594 -0.275685   
     length 1.75612   
     axis 0 0 0   XYZ
    dof rx ry rz
    limits (-20.0 45.0)
           (-30.0 30.0)
           (-30.0 30.0)
  end
  begin
     id 16
     name head
     direction -0.0161544 0.99458 -0.102714  
     length 1.79288  
     axis 0 0 0   XYZ
    dof rx ry rz
    limits (-20.0 45.0)
           (-30.0 30.0)
           (-30.0 30.0)
  end
  begin
     id 17 
     name lclavicle
     direction 0.93913 0.332189 -0.087669  
     length 3.52087  
     axis 0 0 0   XYZ
    dof ry rz
    limits (-20.0 10.0)
           (0.0 20.0)
  end
  begin
     id 18 
     name lhumerus
     direction 1 -4.48974e-011 -2.70836e-027   
     length 5.35289   
     axis -180 -30 -90   XYZ
    dof rx ry rz
    limits (-60.0 90.0)
           (-90.0 90.0)
           (-90.0 90.0)
  end
  begin
     id 19
     name lradius
     direction 1 -4.48961e-011 -9.76021e-027   
     length 3.27727   
     axis -180 -30 -90   XYZ
    dof rx
    limits (-10.0 170.0)
  end
  begin
     id 20
     name lwrist
     direction 1 -4.49103e-011 -2.23668e-026   
     length 1.63864   
     axis 1.44924e-014 90 90   XYZ
    dof ry
    limits (-180.0 0.0)
 end
  begin
     id 21 
     name lhand
     direction 1 3.0697e-005 0.000161777   
     length 0.54443   
     axis 2.85318e-014 90 90   XYZ
    dof rx rz
    limits (-90.0 90.0)
           (-45.0 45.0)
  end
  begin
     id 22 
     name lfingers
     direction 1 -4.49027e-011 -8.9447e-026   
     length 0.438912   
     axis 5.70628e-014 90 90   XYZ
    dof rx
    limits (0.0 90.0)
  end
  begin
     id 23
     name lthumb
     direction 0.707058 2.6516e-005 0.707156   
     length 0.630274   
     axis -90 45 -3.53137e-014   XYZ
    dof rx rz
    limits (-45.0 45.0)
           (-45.0 45.0)
  end
  begin
     id 24 
     name rclavicle
     direction -0.95274 0.284984 -0.105215   
     length 3.43401  
     axis 0 0 0   XYZ 
    dof ry rz
    limits (-10.0 20.0)
           (-20.0 0.0)
  end
  begin
     id 25 
     name rhumerus
     direction -0.999999 -0.000575019 -0.00106829  
     length 5.52077   
     axis -180 30 90   XYZ
    dof rx ry rz
    limits (-90.0 60.0)
           (-90.0 90.0)
           (-90.0 90.0)
  end
  begin
     id 26 
     name rradius
     direction -1 -4.4879e-011 -6.35415e-027   
     length 3.32364   
     axis -180 30 90   XYZ
    dof rx
    limits (-10.0 170.0)
  end
  begin
     id 27 
     name rwrist
     direction -1 -4.49048e-011 -9.98542e-027   
     length 1.66182   
     axis 6.32482e-015 -90 -90   XYZ
    dof ry
    limits (-180.0 0.0)
  end
  begin
     id 28
     name rhand
     direction -1 -4.48978e-011 -1.99771e-026   
     length 0.732235   
     axis 1.27479e-014 -90 -90   XYZ
    dof rx rz
    limits (-90.0 90.0)
           (-45.0 45.0)
  end
  begin
     id 29
     name rfingers
     direction -1 -4.49144e-011 -3.99245e-026   
     length 0.590347   
     axis 2.5496e-014 -90 -90   XYZ
    dof rx
    limits (0.0 90.0)
  end
  begin
     id 30
     name rthumb
     direction -0.707107 -6.35121e-011 0.707107   
     length 0.847624   
     axis -90 -45 -2.82974e-014   XYZ
    dof rx rz
    limits (-45.0 45.0)
           (-45.0 45.0)
  end
:hierarchy
  begin
    root lhipjoint rhipjoint lowerback
    lhipjoint lfemur
    lfemur ltibia
    ltibia lfoot
    lfoot ltoes
    rhipjoint rfemur
    rfemur rtibia
    rtibia rfoot
    rfoot rtoes
    lowerback upperback
    upperback thorax
    thorax lowerneck lclavicle rclavicle
    lowerneck upperneck
    upperneck head
    lclavicle lhumerus
    lhumerus lradius
    lradius lwrist
    lwrist lhand lthumb
    lhand lfingers
    rclavicle rhumerus
    rhumerus rradius
    rradius rwrist
    rwrist rhand rthumb
    rhand rfingers
  end

#!OML:ASF G:\Work\Work\Patient Classification 1\Elijah\terrain1\Elijah.ASF
:FULLY-SPECIFIED
:DEGREES
2066
root 27.1932 20.6417 -5.00941 185.356 5.66653 -175.478
lowerback 5.28819 0.722454 7.77562
upperback 3.01969 1.53264 0.906523
thorax 0.334298 0.9525 -3.49297
lowerneck -5.37788 12.1983 17.8326
upperneck 24.1825 28.2197 -23.2789
head 15.7497 13.7607 -6.80199
rclavicle -1.78906e-015 -1.19271e-014
rhumerus -36.4368 9.61707 -86.1133
rradius 47.8907
rwrist -9.05152
rhand -14.9895 22.393
rfingers 7.12502
rthumb 11.1749 -7.28945
lclavicle -1.78906e-015 -1.19271e-014
lhumerus -38.7426 13.3199 75.0555
lradius 22.2001
lwrist -12.1476
lhand -12.6619 28.9231
lfingers 7.12502
lthumb 13.4191 58.4709
rfemur -2.92461 -2.46551 29.9368
rtibia 23.341
rfoot -18.1627 -6.89005
rtoes -14.8004
lfemur -59.9273 7.12256 -17.2954
ltibia 60.3681
lfoot -1.20098 -13.1891
ltoes -5.78978
2067
root 27.187 20.6664 -5.13873 185.254 5.99002 -175.712
lowerback 4.82848 0.772896 7.46965
upperback 3.70714 1.55104 0.805579
thorax 1.2995 1.02708 -3.40331
lowerneck -6.1225 12.5741 17.7868
upperneck 23.7788 28.5633 -23.6405
head 15.9163 13.7683 -6.76074
rclavicle 6.06293e-015 -1.55052e-014
rhumerus -35.5484 10.1144 -86.0109
rradius 48.8847
rwrist -9.7023
rhand -15.0077 22.6508
rfingers 7.12502
rthumb 11.1573 -7.03257
lclavicle 6.06293e-015 -1.55052e-014
lhumerus -38.5113 15.1101 74.1642
lradius 21.215
lwrist -13.1391
lhand -12.1666 29.4359
lfingers 7.12502
lthumb 13.8965 58.9516
rfemur -1.92416 -2.69696 29.4313
rtibia 22.4237
rfoot -17.7114 -6.25043
rtoes -14.4256
lfemur -59.7863 7.02528 -17.3422
ltibia 58.1646
lfoot -0.272076 -12.2646
ltoes -0.148662
2068
root 27.199 20.6696 -5.23198 185.236 6.34286 -174.586
lowerback 5.9336 0.80172 8.18072
upperback 3.37167 1.75777 1.14454
thorax 0.371439 1.10223 -3.49224
lowerneck -5.73771 12.5352 17.978
upperneck 23.8145 28.7793 -23.781
head 15.9834 13.9313 -6.82089
rclavicle -4.00551e-014 1.59028e-015
rhumerus -36.2664 10.5792 -86.1031
rradius 49.9094
rwrist -9.7138
rhand -15.362 22.9743
rfingers 7.12502
rthumb 10.8156 -6.7272
lclavicle -4.00551e-014 1.59028e-015
lhumerus -39.8431 16.0012 73.1247
lradius 20.6503
lwrist -13.3288
lhand -11.6371 29.6408
lfingers 7.12502
lthumb 14.4067 59.1209
rfemur -1.12748 -1.47535 30.8052
rtibia 21.5794
rfoot -17.0283 -7.00631
rtoes -13.4578
lfemur -59.8829 7.12193 -15.6673
ltibia 56.0441
lfoot -0.282975 -12.3338
ltoes -7.34972
2069
root 27.1728 20.6903 -5.34912 185.505 5.88143 -174.84
lowerback 5.22428 0.5548 8.00634
upperback 3.48572 1.33804 1.12243
thorax 0.830833 0.908058 -3.38032
lowerneck -5.16602 12.5293 18.1329
upperneck 23.3707 29.0049 -24.3337
head 15.8875 14.0855 -7.04478
rclavicle -6.4605e-015 -2.5842e-015
rhumerus -36.0503 11.3891 -86.0132
rradius 50.5786
rwrist -9.5606
rhand -15.2525 22.7876
rfingers 7.12502
rthumb 10.9212 -6.90834
lclavicle -6.4605e-015 -2.5842e-015
lhumerus -40.822 17.0545 72.3313
lradius 20.1158
lwrist -13.8781
lhand -11.5704 29.4963
lfingers 7.12502
lthumb 14.471 58.9717
rfemur -0.567034 -2.5435 30.2745
rtibia 20.7172
rfoot -16.597 -6.38666
rtoes -13.5693
lfemur -60.1217 6.11835 -15.689
ltibia 53.9095
lfoot -0.0597438 -11.8012
ltoes -11.4361
2070
root 27.1842 20.6916 -5.43776 184.961 7.13889 -174.245
lowerback 6.03506 0.785623 7.88829
upperback 3.86158 1.75549 1.33026
thorax 0.805789 1.1446 -3.12927
lowerneck -4.6194 12.5494 18.3783
upperneck 22.7779 29.1639 -24.9601
head 15.7471 14.2054 -7.32431
rclavicle -2.61402e-014 2.3059e-014
rhumerus -35.5923 11.6927 -85.813
rradius 51.3545
rwrist -8.79863
rhand -14.5286 22.3549
rfingers 7.12502
rthumb 11.6194 -7.30298
lclavicle -2.61402e-014 2.3059e-014
lhumerus -41.6542 18.1953 71.3528
lradius 19.2633
lwrist -15.5476
lhand -12.0236 28.5555
lfingers 7.12502
lthumb 14.0343 58.0617
rfemur 0.84325 -0.406647 31.0805
rtibia 19.8906
rfoot -15.7538 -7.65966
rtoes -14.5401
lfemur -59.3303 6.69294 -14.3258
ltibia 51.9028
lfoot 0.350961 -10.975
ltoes -13.9564
2071
root 27.1772 20.7108 -5.59913 184.89 7.34791 -174.409
lowerback 5.87658 0.870128 7.76225
upperback 3.96943 1.83921 1.20389
thorax 1.01565 1.19521 -3.18666
lowerneck -4.68994 12.6082 18.4711
upperneck 22.783 29.3364 -25.0447
head 15.8603 14.2774 -7.31558
rclavicle 1.54555e-014 3.65764e-014
rhumerus -35.5981 11.6892 -85.7067
rradius 52.3987
rwrist -8.55923
rhand -14.0558 21.869
rfingers 7.12502
rthumb 12.0753 -7.76261
lclavicle 1.54555e-014 3.65764e-014
lhumerus -42.3748 18.5628 70.6848
lradius 18.7208
lwrist -16.1177
lhand -11.2915 29.2309
lfingers 7.12502
lthumb 14.7397 58.6868
rfemur 1.89605 -0.988256 30.5943
rtibia 19.1403
rfoot -15.4393 -7.14417
rtoes -15.7007
lfemur -58.8469 6.32134 -14.0323
ltibia 49.9904
lfoot 0.794102 -10.0211
ltoes -11.4436
